<svg preserveAspectRatio="none" width="100%" height="100%" overflow="visible" style="display: block;" viewBox="0 0 8.62133 9.59983" fill="none" xmlns="http://www.w3.org/2000/svg">
<g id="Company Logo">
<path id="Vector" d="M4.70975 0.0122182C3.78788 0.0584682 2.65788 0.246593 1.77475 0.515968C1.61288 0.565343 1.0335 0.73753 1.24163 0.994718C1.47944 1.28816 2.32475 1.02128 2.65569 0.973781C3.6085 0.837218 6.57131 0.41878 5.95944 2.26222C5.78194 2.79753 5.24663 3.38597 4.856 3.78066C4.42694 3.52097 3.63319 3.12722 3.63319 3.12722C3.21038 2.91659 2.77663 2.72034 2.34413 2.53847C1.93288 2.36566 0.834127 1.87753 0.441002 1.90784C0.0541271 1.93753 -0.133998 2.22566 0.107877 2.56409C0.332252 2.87784 1.19569 3.24722 1.56381 3.45753C1.81288 3.59972 3.62069 4.65941 3.64881 4.79159C3.65819 4.83628 3.51256 4.92753 3.47194 4.95847C2.62413 5.59722 1.66881 6.04284 0.756002 6.56722C0.482565 6.7244 -0.172123 7.07816 0.0960021 7.48191C0.357877 7.87566 1.08006 7.54597 1.41944 7.42284C3.63663 6.61722 6.97819 4.87722 8.22506 2.80003C9.77256 0.224093 6.40413 -0.0724693 4.70975 0.0122182Z" fill="var(--fill-0, white)"/>
<path id="Vector_2" d="M8.53727 7.48277C8.37446 6.87621 7.5554 5.81277 7.05915 5.43215C7.05165 5.42652 7.04446 5.42059 7.03727 5.41465C7.03727 5.41465 6.99946 5.3809 6.94602 5.35059L6.91258 5.37465L5.3829 6.37402C5.70477 6.87184 6.09352 7.30715 6.01696 7.94996C5.91571 8.80184 4.47071 8.80402 3.84852 8.77184C3.17508 8.73684 2.51446 8.53996 1.87571 8.47902C1.63196 8.4559 0.911332 8.54434 1.30852 8.88902C1.63414 9.17152 3.38946 9.45902 3.87977 9.51777C5.22258 9.67777 9.17196 9.84715 8.53727 7.48277Z" fill="var(--fill-0, white)"/>
</g>
</svg>
