<svg preserveAspectRatio="none" width="100%" height="100%" overflow="visible" style="display: block;" viewBox="0 0 80 66.6405" fill="none" xmlns="http://www.w3.org/2000/svg">
<path id="Ellipse" d="M65.4987 65.4986C67.0371 67.0371 69.5487 67.0483 70.9285 65.366C75.0844 60.2987 77.9451 54.2707 79.2314 47.8036C80.7748 40.0444 79.9827 32.0017 76.9552 24.6927C73.9277 17.3836 68.8008 11.1365 62.2228 6.74122C55.6449 2.34596 47.9113 3.61509e-07 40 0C32.0888 -3.61509e-07 24.3552 2.34596 17.7772 6.74121C11.1992 11.1365 6.07234 17.3836 3.04484 24.6927C0.0173319 32.0017 -0.774802 40.0444 0.768606 47.8036C2.05498 54.2707 4.91561 60.2987 9.07158 65.366C10.4513 67.0483 12.9629 67.0371 14.5014 65.4986V65.4986C16.0398 63.9602 16.0176 61.4788 14.6789 59.7637C11.6034 55.8235 9.47835 51.2043 8.49615 46.2665C7.25675 40.0356 7.89286 33.5772 10.324 27.7078C12.7552 21.8384 16.8722 16.8218 22.1545 13.2923C27.4368 9.7628 33.6471 7.87894 40 7.87894C46.353 7.87894 52.5632 9.7628 57.8455 13.2923C63.1278 16.8218 67.2448 21.8384 69.676 27.7078C72.1072 33.5772 72.7433 40.0356 71.5039 46.2665C70.5217 51.2043 68.3966 55.8235 65.3212 59.7637C63.9825 61.4788 63.9602 63.9602 65.4987 65.4986V65.4986Z" fill="url(#paint0_linear_2257_97769)"/>
<defs>
<linearGradient id="paint0_linear_2257_97769" x1="71.5" y1="19.9199" x2="12" y2="63.9199" gradientUnits="userSpaceOnUse">
<stop stop-color="#014A58"/>
<stop offset="1" stop-color="#43A2FF"/>
</linearGradient>
</defs>
</svg>
